<svg width="1025" height="180" viewBox="0 0 1025 180" fill="none" xmlns="http://www.w3.org/2000/svg">
<path d="M130.431 0C157.807 0.000116095 180 22.193 180 49.5693V130.431C180 157.807 157.807 180 130.431 180H49.5693C22.193 180 0.00011321 157.807 0 130.431V49.5693C0.00011611 22.193 22.193 0.000113196 49.5693 0H130.431ZM155.989 23.502C148.596 16.1086 134.173 17.1749 116.953 24.8682C99.7163 32.5691 79.7739 32.5691 62.5371 24.8682C45.318 17.1752 30.8953 16.1088 23.502 23.502C16.1089 30.8953 17.176 45.318 24.8691 62.5371C32.57 79.7738 32.5701 99.7164 24.8691 116.953C17.1759 134.173 16.1085 148.596 23.502 155.989C30.8954 163.382 45.318 162.315 62.5371 154.621C79.7738 146.92 99.7164 146.92 116.953 154.621C134.173 162.315 148.596 163.382 155.989 155.989C163.382 148.596 162.315 134.173 154.622 116.953C146.921 99.7164 146.921 79.7738 154.622 62.5371C162.316 45.318 163.382 30.8954 155.989 23.502Z" fill="#CCD0FF"/>
<path d="M114.108 48.9174C117.379 50.806 118.5 54.9888 116.612 58.2599L113.479 63.6856C108.482 72.3395 114.622 83.177 124.613 83.34L138 83.5584C141.776 83.62 144.788 86.7316 144.726 90.5081C144.664 94.2845 141.553 97.2958 137.777 97.2342L110.613 96.791C100.678 96.6289 91.4356 101.865 86.4675 110.47L76.2046 128.246C74.3161 131.517 70.1334 132.638 66.8623 130.75C63.5912 128.861 62.4704 124.678 64.3589 121.407L67.5803 115.827C72.6445 107.055 66.4211 96.0707 56.2937 95.9057L42.7274 95.6847C38.951 95.6232 35.9395 92.5119 36.001 88.7355C36.0625 84.959 39.1738 81.9474 42.9503 82.0089L70.7753 82.4624C80.6004 82.6225 89.7404 77.4445 94.6537 68.9347L104.766 51.4206C106.655 48.1497 110.837 47.029 114.108 48.9174Z" fill="#CCD0FF"/>
<path d="M323.943 54.45H270.393V81.15H310.443V97.5H270.393V125.55H323.943V142.5H250.143V37.5H323.943V54.45ZM336.003 34.5H355.353V96.75H360.153L384.903 67.5H410.103L376.953 104.7L410.253 142.5H385.053L360.003 112.8H355.353V142.5H336.003V34.5ZM416.757 34.5H435.957V74.85C438.257 72.35 441.107 70.35 444.507 68.85C448.007 67.25 451.907 66.45 456.207 66.45C461.907 66.45 466.857 67.7 471.057 70.2C475.357 72.7 478.657 76.35 480.957 81.15C483.257 85.85 484.407 91.7 484.407 98.7V142.5H464.157V101.25C464.157 95.45 463.007 91.1 460.707 88.2C458.407 85.3 454.957 83.85 450.357 83.85C445.657 83.85 442.057 85.45 439.557 88.65C437.157 91.75 435.957 96.2 435.957 102V142.5H416.757V34.5ZM531.414 143.55C524.114 143.55 517.614 142 511.914 138.9C506.214 135.7 501.714 131.25 498.414 125.55C495.214 119.75 493.614 112.95 493.614 105.15C493.614 97.25 495.264 90.4 498.564 84.6C501.964 78.8 506.564 74.35 512.364 71.25C518.164 68.05 524.664 66.45 531.864 66.45C539.064 66.45 545.564 68.05 551.364 71.25C557.164 74.35 561.764 78.8 565.164 84.6C568.564 90.3 570.264 97.05 570.264 104.85C570.264 112.75 568.514 119.6 565.014 125.4C561.614 131.2 556.964 135.7 551.064 138.9C545.264 142 538.714 143.55 531.414 143.55ZM531.264 126.3C534.364 126.3 537.314 125.55 540.114 124.05C542.914 122.45 545.214 120.1 547.014 117C548.814 113.8 549.714 109.75 549.714 104.85C549.714 100.15 548.864 96.25 547.164 93.15C545.464 89.95 543.214 87.6 540.414 86.1C537.714 84.5 534.764 83.7 531.564 83.7C528.464 83.7 525.564 84.5 522.864 86.1C520.264 87.6 518.164 89.95 516.564 93.15C515.064 96.25 514.314 100.25 514.314 105.15C514.314 109.85 515.064 113.8 516.564 117C518.064 120.1 520.114 122.45 522.714 124.05C525.314 125.55 528.164 126.3 531.264 126.3ZM655.162 54.45H601.612V81.15H641.662V97.5H601.612V125.55H655.162V142.5H581.362V37.5H655.162V54.45ZM667.221 67.5H684.621L685.971 75.15C688.371 72.45 691.271 70.35 694.671 68.85C698.171 67.25 701.921 66.45 705.921 66.45C711.821 66.45 716.821 67.7 720.921 70.2C725.121 72.7 728.321 76.35 730.521 81.15C732.821 85.85 733.971 91.7 733.971 98.7V142.5H714.621V101.25C714.621 95.45 713.471 91.1 711.171 88.2C708.871 85.3 705.421 83.85 700.821 83.85C696.121 83.85 692.521 85.35 690.021 88.35C687.621 91.25 686.421 95.6 686.421 101.4V142.5H667.221V67.5ZM800.653 67.5H818.053V131.4C818.053 139.9 815.953 147.2 811.753 153.3C807.553 159.5 801.453 164.25 793.453 167.55C785.553 170.85 776.053 172.5 764.953 172.5L761.953 156.3C774.053 156.1 783.203 153.95 789.403 149.85C795.703 145.75 798.853 139.85 798.853 132.15V131.85L801.403 130.95C799.003 134.45 795.703 137.45 791.503 139.95C787.303 142.35 782.303 143.55 776.503 143.55C769.903 143.55 764.103 141.95 759.103 138.75C754.103 135.55 750.153 131.1 747.253 125.4C744.453 119.6 743.053 112.8 743.053 105C743.053 97.2 744.453 90.4 747.253 84.6C750.153 78.8 754.103 74.35 759.103 71.25C764.103 68.05 769.903 66.45 776.503 66.45C779.903 66.45 783.053 66.95 785.953 67.95C788.953 68.85 791.553 70.1 793.753 71.7C796.053 73.2 797.953 74.9 799.453 76.8L800.653 67.5ZM763.753 105C763.753 111.3 765.353 116.4 768.553 120.3C771.753 124.1 776.053 126 781.453 126C784.553 126 787.403 125.2 790.003 123.6C792.603 121.9 794.703 119.45 796.303 116.25C798.003 113.05 798.853 109.3 798.853 105C798.853 100.5 798.003 96.7 796.303 93.6C794.703 90.5 792.553 88.15 789.853 86.55C787.253 84.85 784.453 84 781.453 84C776.053 84 771.753 85.95 768.553 89.85C765.353 93.65 763.753 98.7 763.753 105ZM834.502 67.5H853.702V142.5H834.502V67.5ZM844.252 57.9C840.652 57.9 837.702 56.8 835.402 54.6C833.102 52.3 831.952 49.5 831.952 46.2C831.952 42.9 833.102 40.15 835.402 37.95C837.702 35.65 840.652 34.5 844.252 34.5C847.652 34.5 850.502 35.65 852.802 37.95C855.202 40.15 856.402 42.9 856.402 46.2C856.402 49.5 855.202 52.3 852.802 54.6C850.502 56.8 847.652 57.9 844.252 57.9ZM870.225 67.5H887.625L888.975 75.15C891.375 72.45 894.275 70.35 897.675 68.85C901.175 67.25 904.925 66.45 908.925 66.45C914.825 66.45 919.825 67.7 923.925 70.2C928.125 72.7 931.325 76.35 933.525 81.15C935.825 85.85 936.975 91.7 936.975 98.7V142.5H917.625V101.25C917.625 95.45 916.475 91.1 914.175 88.2C911.875 85.3 908.425 83.85 903.825 83.85C899.125 83.85 895.525 85.35 893.025 88.35C890.625 91.25 889.425 95.6 889.425 101.4V142.5H870.225V67.5ZM983.857 143.55C976.357 143.55 969.757 141.9 964.057 138.6C958.357 135.3 953.907 130.7 950.707 124.8C947.607 118.9 946.057 112.1 946.057 104.4C946.057 97 947.607 90.45 950.707 84.75C953.807 79.05 958.107 74.6 963.607 71.4C969.207 68.1 975.557 66.45 982.657 66.45C989.857 66.45 996.207 68 1001.71 71.1C1007.21 74.2 1011.46 78.55 1014.46 84.15C1017.56 89.65 1019.11 96.1 1019.11 103.5C1019.11 104.6 1019.01 105.85 1018.81 107.25C1018.71 108.55 1018.56 109.95 1018.36 111.45H966.757C967.157 114.65 968.157 117.4 969.757 119.7C971.457 121.9 973.507 123.65 975.907 124.95C978.407 126.15 981.207 126.75 984.307 126.75C988.007 126.75 991.307 126 994.207 124.5C997.207 122.9 999.357 120.85 1000.66 118.35L1017.76 123.45C1014.76 129.85 1010.26 134.8 1004.26 138.3C998.357 141.8 991.557 143.55 983.857 143.55ZM998.107 97.5C998.007 94.7 997.257 92.2 995.857 90C994.457 87.7 992.607 85.95 990.307 84.75C988.007 83.45 985.457 82.8 982.657 82.8C980.157 82.8 977.807 83.45 975.607 84.75C973.407 86.05 971.507 87.8 969.907 90C968.407 92.1 967.407 94.6 966.907 97.5H998.107Z" fill="#CCD0FF"/>
</svg>
